#N canvas 856 494 490 459 10;
#X obj 146 38 tgl 15 0 empty empty empty 17 7 0 10 -262144 -1 -1 1
1;
#X obj 220 36 tgl 15 0 empty empty empty 17 7 0 10 -262144 -1 -1 1
1;
#X obj 154 152 f 0;
#X obj 228 150 f 0;
#X obj 184 237 f;
#X floatatom 184 259 5 0 0 0 - - -, f 5;
#X obj 159 189 !=;
#X obj 220 186 !=;
#X msg 139 337 Update toggle right;
#X obj 89 102 t b f b;
#X obj 283 99 t b f b;
#X msg 325 342 Update toggle left;
#X obj 284 293 spigot;
#X obj 286 410 s \$0-toggleleft;
#X obj 15 9 r \$0-toggleleft;
#X obj 325 364 print;
#X obj 94 293 spigot;
#X obj 96 408 s \$0-toggleright;
#X obj 282 4 r \$0-toggleright;
#X connect 0 0 9 0;
#X connect 0 0 2 1;
#X connect 1 0 3 1;
#X connect 1 0 10 0;
#X connect 2 0 7 1;
#X connect 3 0 6 1;
#X connect 4 0 5 0;
#X connect 5 0 12 1;
#X connect 5 0 16 1;
#X connect 6 0 4 0;
#X connect 7 0 4 0;
#X connect 8 0 15 0;
#X connect 9 0 16 0;
#X connect 9 1 2 1;
#X connect 9 1 6 0;
#X connect 9 2 3 0;
#X connect 10 0 12 0;
#X connect 10 1 7 0;
#X connect 10 1 3 1;
#X connect 10 2 2 0;
#X connect 11 0 15 0;
#X connect 12 0 11 0;
#X connect 12 0 13 0;
#X connect 14 0 0 0;
#X connect 16 0 8 0;
#X connect 16 0 17 0;
#X connect 18 0 1 0;
